# xmcd CD database file
#
# Track frame offsets:
#	150
#	24450
#	44925
#	57075
#	78750
#	98700
#	116475
#	136050
#	150150
#	162750
#	182925
#	201450
#	218550
#	243975
#	258225
#
# Disc length: 3665 seconds
#
# Revision: 0
# Processed by: cddbd v1.5.2PL0 Copyright (c) Steve Scherf et al.
# Submitted via: CDex 1.51
#
DISCID=c00e4f0f
DTITLE=Little Charlie and the Nightcats - Deluxe Edition
DYEAR=1997
DGENRE=Blues
TTITLE0=Can't Keep It Up
TTITLE1=Right Around the Corner
TTITLE2=I Beg Your Pardon
TTITLE3=Don't Do It
TTITLE4=Sure Seems Strange
TTITLE5=Run Me Down
TTITLE6=Too Close Together
TTITLE7=I Feel So Sorry
TTITLE8=My Next Ex-Wife
TTITLE9=Clothes Line
TTITLE10=Dump That Chump
TTITLE11=I'll Take You Back
TTITLE12=The Booty Song (I Love to Watch You Walk Away)
TTITLE13=Gerontology
TTITLE14=Crying Won't Help You
EXTD=YEAR: 1997
EXTT0=
EXTT1=
EXTT2=
EXTT3=
EXTT4=
EXTT5=
EXTT6=
EXTT7=
EXTT8=
EXTT9=
EXTT10=
EXTT11=
EXTT12=
EXTT13=
EXTT14=
PLAYORDER=
